<svg width="19" height="19" viewBox="0 0 19 19" fill="none" xmlns="http://www.w3.org/2000/svg">
<path d="M8.63636 10.6253V0H10.2066V10.6253H8.63636ZM9.42149 19C8.13039 19 6.91345 18.7514 5.77066 18.2541C4.62787 17.7569 3.62902 17.0808 2.7741 16.2259C1.91919 15.371 1.24311 14.3721 0.745868 13.2293C0.248623 12.0865 0 10.8696 0 9.57851C0 8.18274 0.296602 6.87856 0.889807 5.66598C1.48301 4.4534 2.32048 3.37603 3.4022 2.43388L4.50138 3.53306C3.57668 4.28329 2.85698 5.17746 2.34229 6.21557C1.82759 7.25367 1.57025 8.37446 1.57025 9.57794C1.57025 11.7592 2.33356 13.6132 3.86019 15.1398C5.38682 16.6664 7.24059 17.4298 9.42149 17.4298C11.6086 17.4298 13.4639 16.6664 14.9875 15.1398C16.511 13.6132 17.2727 11.7592 17.2727 9.57794C17.2727 8.37446 17.0154 7.24495 16.5007 6.18939C15.986 5.13384 15.2837 4.24839 14.3939 3.53306L15.5193 2.43388C16.5661 3.32369 17.3818 4.38797 17.9663 5.62672C18.5507 6.86547 18.843 8.18274 18.843 9.57851C18.843 10.8696 18.5944 12.0865 18.0971 13.2293C17.5999 14.3721 16.9281 15.371 16.082 16.2259C15.2358 17.0808 14.2413 17.7569 13.0985 18.2541C11.9557 18.7514 10.73 19 9.42149 19Z" fill="#42E1FF"/>
</svg>
