<svg width="20" height="19" viewBox="0 0 20 19" fill="none" xmlns="http://www.w3.org/2000/svg">
<path d="M9.73084 9.12266C8.39285 9.12266 7.29813 8.69694 6.44668 7.84549C5.59523 6.99404 5.16951 5.89932 5.16951 4.56133C5.16951 3.22334 5.59523 2.12862 6.44668 1.27717C7.29813 0.425724 8.39285 0 9.73084 0C11.0688 0 12.1635 0.425724 13.015 1.27717C13.8664 2.12862 14.2922 3.22334 14.2922 4.56133C14.2922 5.89932 13.8664 6.99404 13.015 7.84549C12.1635 8.69694 11.0688 9.12266 9.73084 9.12266ZM0 18.8839V16.0255C0 15.2551 0.19259 14.5963 0.577769 14.0489C0.962948 13.5015 1.45963 13.086 2.0678 12.8021C3.42607 12.194 4.72858 11.7378 5.97534 11.4337C7.22211 11.1296 8.47394 10.9776 9.73084 10.9776C10.9877 10.9776 12.2345 11.1347 13.4711 11.4489C14.7078 11.7632 16.0052 12.2142 17.3635 12.8021C17.9919 13.086 18.4987 13.5015 18.8839 14.0489C19.2691 14.5963 19.4617 15.2551 19.4617 16.0255V18.8839H0Z" fill="#42E1FF"/>
</svg>
